<?xml version="1.0" standalone="no"?>
<!DOCTYPE svg PUBLIC "-//W3C//DTD SVG 20010904//EN"
 "http://www.w3.org/TR/2001/REC-SVG-20010904/DTD/svg10.dtd">
<svg version="1.0" xmlns="http://www.w3.org/2000/svg"
 width="1588.000000pt" height="1588.000000pt" viewBox="0 0 1588.000000 1588.000000"
 preserveAspectRatio="xMidYMid meet">
<metadata>
Created by potrace 1.14, written by Peter Selinger 2001-2017
</metadata>
<g transform="translate(0.000000,1588.000000) scale(0.100000,-0.100000)"
fill="#000000" stroke="none">
<path d="M7408 15875 c-2 -1 -77 -6 -168 -9 -91 -4 -187 -9 -215 -11 -27 -2
-88 -6 -135 -10 -187 -13 -227 -16 -265 -20 -22 -3 -65 -7 -95 -10 -224 -21
-361 -37 -495 -55 -38 -6 -90 -12 -115 -15 -25 -3 -70 -10 -100 -15 -30 -5
-73 -12 -95 -15 -69 -8 -406 -64 -510 -85 -55 -11 -111 -21 -125 -24 -14 -2
-101 -21 -195 -41 -167 -35 -271 -59 -490 -112 -60 -15 -112 -28 -115 -28 -53
-13 -298 -81 -455 -126 -647 -188 -1339 -449 -1769 -666 l-128 -65 6 -577 c3
-317 8 -607 10 -645 2 -37 7 -116 11 -175 8 -130 13 -202 21 -306 3 -44 7 -96
9 -115 4 -57 15 -172 20 -215 3 -22 7 -65 10 -95 11 -108 23 -210 31 -268 2
-18 7 -54 10 -80 3 -26 7 -56 9 -67 1 -11 5 -42 9 -70 9 -69 24 -162 51 -330
45 -279 116 -639 185 -935 12 -52 23 -102 25 -110 3 -13 41 -159 88 -340 99
-376 303 -982 459 -1359 33 -80 69 -167 79 -194 11 -26 23 -55 29 -65 5 -9 30
-64 56 -122 270 -614 714 -1368 1104 -1875 91 -119 153 -198 166 -214 7 -9 50
-61 94 -116 162 -198 177 -216 406 -470 253 -282 604 -624 874 -855 47 -40 97
-82 111 -95 44 -38 259 -207 364 -287 545 -410 1159 -749 1650 -909 119 -39
165 -40 265 -6 178 60 305 116 565 247 443 224 892 521 1330 880 290 237 427
362 740 675 284 284 466 484 710 779 22 27 47 56 55 66 8 9 26 32 40 50 14 18
30 38 35 44 25 25 239 311 327 436 212 299 425 645 612 990 50 93 247 488 291
585 58 128 139 315 181 420 25 61 49 119 54 130 5 11 21 52 35 90 14 39 44
120 66 180 167 453 359 1108 454 1545 77 361 141 694 170 895 4 22 12 78 20
125 8 47 17 109 20 139 4 30 8 61 10 70 1 9 6 45 10 81 4 36 9 73 10 82 2 9 6
41 10 70 3 29 7 67 9 83 2 17 7 64 11 105 3 41 8 86 10 100 2 14 7 59 10 100
3 41 7 95 10 120 7 64 20 254 30 420 14 236 17 377 19 863 l2 529 -71 36
c-490 252 -1255 535 -2025 748 -107 30 -204 56 -215 59 -11 2 -56 13 -100 25
-222 57 -757 174 -889 194 -21 4 -41 8 -45 10 -3 2 -26 7 -51 10 -25 3 -54 8
-65 10 -31 5 -87 15 -125 21 -19 3 -60 10 -90 15 -58 9 -92 15 -200 30 -36 5
-81 12 -100 15 -19 3 -53 7 -75 10 -22 2 -60 7 -85 10 -25 4 -58 8 -75 10 -16
2 -50 6 -75 9 -77 9 -133 16 -195 21 -33 3 -103 10 -155 15 -52 6 -131 13
-175 15 -44 3 -98 7 -120 9 -22 3 -98 8 -170 12 -71 3 -150 8 -175 11 -52 5
-1247 13 -1252 8z"/>
<path d="M6031 2933 c-112 -21 -211 -73 -290 -151 -56 -56 -105 -129 -118
-177 -35 -128 -44 -168 -50 -215 -9 -72 -9 -1753 0 -1845 33 -343 241 -535
582 -538 111 -2 178 7 245 29 219 74 354 256 377 509 9 94 9 1857 0 1920 -35
252 -172 406 -414 464 -94 22 -229 24 -332 4z m214 -246 c76 -12 152 -60 196
-123 38 -56 66 -165 76 -294 10 -131 9 -1537 -1 -1644 -14 -146 -54 -232 -139
-295 -65 -48 -125 -68 -202 -66 -124 3 -228 64 -279 164 -41 81 -44 163 -46
1386 0 626 1 639 53 728 37 62 105 112 182 135 66 19 84 20 160 9z"/>
<path d="M7475 2943 c-168 -31 -268 -77 -354 -165 -83 -83 -125 -168 -147
-293 -3 -16 -8 -41 -11 -55 -10 -37 -11 -1825 -2 -1895 15 -114 21 -150 30
-168 6 -9 7 -17 5 -17 -3 0 11 -33 31 -72 70 -137 189 -223 361 -258 86 -17
234 -20 312 -6 237 43 406 209 456 447 15 74 18 223 18 1014 0 957 -2 992 -44
1120 -72 216 -264 344 -525 350 -60 1 -119 0 -130 -2z m239 -289 c112 -55 167
-151 183 -322 9 -95 9 -1689 1 -1753 -21 -151 -73 -231 -188 -287 -47 -23 -67
-26 -141 -26 -70 1 -96 6 -140 26 -121 57 -168 124 -185 267 -9 72 -10 1781
-1 1841 23 155 115 259 246 279 87 14 163 5 225 -25z"/>
<path d="M8340 2925 c-19 -23 -19 -2827 0 -2849 10 -13 35 -16 128 -16 98 0
117 3 128 17 11 15 13 123 14 545 l0 528 71 137 c40 76 75 141 78 145 4 4 19
-27 33 -70 15 -42 90 -259 168 -482 78 -223 171 -490 207 -595 39 -115 73
-197 85 -207 17 -15 40 -18 134 -18 100 0 116 2 134 20 20 20 20 20 0 72 -10
29 -62 175 -115 323 -154 430 -235 656 -255 710 -11 28 -62 172 -115 320 l-97
270 31 60 c17 33 51 98 76 145 25 47 78 146 117 220 39 74 88 168 109 208 101
189 120 224 169 317 29 55 60 114 70 130 20 34 13 70 -17 76 -33 8 -244 2
-253 -7 -11 -12 -42 -71 -198 -374 -72 -140 -169 -329 -216 -420 -47 -91 -113
-220 -148 -287 l-63 -123 -3 597 c-1 420 -5 600 -13 610 -17 20 -242 19 -259
-2z"/>
<path d="M4247 2906 c-13 -13 -14 -189 -15 -1425 0 -1099 2 -1413 12 -1426 18
-25 235 -24 253 1 10 14 13 161 13 681 l0 663 116 -2 117 -3 52 -140 c29 -77
85 -228 125 -335 301 -814 323 -870 344 -876 24 -8 212 -6 237 1 29 9 28 42
-3 122 -16 43 -33 89 -37 103 -5 14 -79 214 -166 445 -86 231 -172 463 -191
515 -19 52 -44 117 -54 143 -18 45 -18 48 -2 53 9 3 49 21 87 40 151 72 238
200 262 384 10 80 9 527 -1 632 -20 201 -122 340 -293 397 -93 31 -119 33
-489 37 -302 4 -354 3 -367 -10z m716 -261 c67 -21 110 -63 129 -127 10 -32
13 -134 13 -384 l0 -340 -28 -43 c-30 -45 -97 -82 -173 -97 -41 -8 -360 -13
-381 -6 -10 3 -13 113 -13 506 0 277 2 505 5 507 2 3 91 4 197 4 157 -1 204
-5 251 -20z"/>
<path d="M9659 2904 c-12 -15 -14 -229 -15 -1426 0 -1325 1 -1409 17 -1424 16
-14 75 -16 489 -16 421 0 474 2 488 16 21 21 23 206 2 230 -11 14 -57 16 -361
16 -325 0 -349 1 -350 18 0 9 -1 591 -1 1292 0 1094 -2 1277 -15 1291 -21 25
-234 27 -254 3z"/>
<path d="M10317 2900 c-11 -15 -13 -30 -7 -48 16 -52 516 -1475 530 -1510 6
-14 10 -266 10 -647 0 -716 -8 -657 90 -657 121 0 166 3 180 12 12 7 14 98 16
642 l1 633 107 290 c212 573 451 1228 460 1261 9 32 -25 41 -160 43 -104 1
-123 -2 -136 -17 -8 -9 -31 -66 -51 -127 -20 -60 -91 -272 -158 -470 -66 -198
-122 -367 -124 -375 -15 -59 -80 -230 -84 -219 -135 414 -402 1194 -411 1199
-7 4 -66 9 -130 9 -110 2 -119 0 -133 -19z"/>
<path d="M11779 2898 c-9 -17 -12 -353 -12 -1426 0 -1200 2 -1405 14 -1417 10
-11 43 -15 114 -16 118 -2 145 4 146 34 1 30 1 166 -5 1272 l-6 970 80 -315
c44 -173 82 -324 84 -335 2 -11 41 -168 86 -350 45 -181 83 -337 85 -345 11
-48 208 -842 217 -873 6 -20 17 -42 23 -47 7 -6 68 -10 136 -11 226 -1 216 -3
226 29 5 15 9 627 8 1430 0 1229 -2 1404 -15 1412 -23 15 -223 12 -244 -3 -20
-14 -19 87 -11 -1152 3 -385 7 -806 9 -935 l5 -235 -25 95 c-14 52 -27 102
-29 110 -2 8 -62 249 -135 535 -72 286 -133 529 -135 540 -3 11 -16 65 -31
120 -14 55 -27 107 -29 115 -19 89 -199 789 -206 801 -7 14 -32 17 -173 18
-161 2 -165 1 -177 -21z"/>
<path d="M2911 2892 c-6 -12 -10 -524 -10 -1423 0 -1164 2 -1407 13 -1424 14
-21 20 -21 372 -19 299 1 369 4 418 18 205 57 335 204 361 408 9 66 8 723 0
792 -20 154 -103 273 -233 333 l-53 25 28 21 c51 38 91 83 114 128 45 88 49
132 45 479 -2 179 -6 339 -9 355 -24 122 -84 205 -193 267 -97 54 -127 58
-501 58 -322 0 -343 -1 -352 -18z m624 -242 c85 -19 128 -55 140 -120 3 -14 8
-38 12 -55 11 -53 9 -467 -2 -530 -14 -77 -35 -115 -85 -157 -60 -52 -124 -69
-282 -75 l-138 -6 -1 29 c-3 155 0 915 5 922 7 12 287 6 351 -8z m20 -1219
c133 -37 196 -98 221 -215 10 -46 13 -143 11 -391 -4 -369 -8 -396 -73 -461
-55 -55 -117 -67 -339 -68 l-190 -1 0 575 c-1 316 0 578 2 582 2 4 68 5 147 3
107 -2 163 -9 221 -24z"/>
</g>
</svg>
